<svg preserveAspectRatio="none" xmlns="http://www.w3.org/2000/svg" width="396" height="275" viewBox="0 0 396 275" fill="none"><defs><linearGradient id="metal" x2="0" y2="1" gradientUnits="objectBoundingBox"><stop stop-color="#8aa7b7"/><stop offset=".14" stop-color="#304958"/><stop offset=".5" stop-color="#0a131b"/><stop offset=".87" stop-color="#4d6572"/><stop offset="1" stop-color="#121e27"/></linearGradient><linearGradient id="fill" x2=".4" y2="1"><stop stop-color="#102331"/><stop offset=".3" stop-color="#06131d"/><stop offset="1" stop-color="#020c12"/></linearGradient><radialGradient id="shine"><stop stop-color="#a6d8ef" stop-opacity=".42"/><stop offset="1" stop-color="#204b69" stop-opacity="0"/></radialGradient></defs><path d="M11 2H385L394 11V264L385 273H11L2 264V11Z" fill="#02080e" stroke="#03090d" stroke-width="4"/><path d="M11 2H385L394 11V264L385 273H11L2 264V11Z" fill="url(#fill)" stroke="url(#metal)" stroke-width="2"/><path d="M13 7H383L389 13V262L383 268H13L7 262V13Z" stroke="#628193" stroke-opacity=".7"/><path d="M17 5H90L94 8H300L304 5H378" stroke="#7f9daa" stroke-opacity=".65"/><ellipse cx="198" cy="4" rx="163" ry="13" fill="url(#shine)"/><path d="M4 15V260M392 15V260" stroke="#1c3443"/></svg>
